<?xml version="1.0" encoding="UTF-8"?>
<svg id="Capa_1" data-name="Capa 1" xmlns="http://www.w3.org/2000/svg" xmlns:xlink="http://www.w3.org/1999/xlink" viewBox="0 0 167.78 167.72">
  <defs>
    <style>
      .cls-1 {
        fill: url(#Degradado_sin_nombre_4);
      }

      .cls-2 {
        fill: url(#Degradado_sin_nombre_5);
      }
    </style>
    <linearGradient id="Degradado_sin_nombre_4" data-name="Degradado sin nombre 4" x1="0" y1="83.86" x2="167.78" y2="83.86" gradientUnits="userSpaceOnUse">
      <stop offset="0" stop-color="#f487b6"/>
      <stop offset="1" stop-color="#9046cf"/>
    </linearGradient>
    <linearGradient id="Degradado_sin_nombre_5" data-name="Degradado sin nombre 5" x1="15.94" y1="105.24" x2="51.17" y2="105.24" gradientUnits="userSpaceOnUse">
      <stop offset="0" stop-color="#9046cf"/>
      <stop offset="1" stop-color="#f487b6"/>
    </linearGradient>
  </defs>
  <path class="cls-1" d="M151,100.63H75.5c5.45-7.26,8.39-16.09,8.39-25.16,0-.55-.01-1.11-.03-1.66l12.78-7.66,1.68-24.49,23.86,9.16-1.06-22.84,23.98,9.11,4.26-2.57L167.78,0h-39.13L63.14,39.29c-6.43-3.76-13.74-5.75-21.19-5.75C18.79,33.54,0,52.33,0,75.47,0,89.86,7.38,103.24,19.54,110.92h0c.03-1.95,.17-3.89,.41-5.82h0c-9.39-6.96-14.92-17.95-14.92-29.63,0-20.37,16.54-36.9,36.91-36.9,7.55,0,14.92,2.31,21.11,6.63h0S130.04,5.03,130.04,5.03h29.34l-13.81,25.88-.99,.6-28.84-10.95,1.04,22.81-23.04-8.86-1.96,28.66-13.2,7.91c.17,1.45,.26,2.92,.26,4.38,0,20.37-16.54,36.9-36.91,36.9-4.79,0-9.53-.93-13.96-2.74-.03,.73-.05,1.46-.05,2.19,0,1.07,.04,2.14,.11,3.21h0c4.47,1.57,9.17,2.38,13.91,2.38,10.86,0,21.29-4.21,29.11-11.74h79.95c6.48,0,11.74,5.26,11.74,11.74v33.54c0,6.48-5.26,11.74-11.74,11.74H40.5c-3.11,0-6.1-1.24-8.3-3.44h0s-25.08-25.07-25.08-25.07l13.21-13.19c-.36-2.12-.6-4.26-.7-6.41h0S0,134.17,0,134.17l28.64,28.63c3.15,3.15,7.41,4.91,11.86,4.91h110.5c9.26,0,16.78-7.51,16.78-16.77v-33.54c0-9.26-7.52-16.77-16.78-16.77Z"/>
  <polygon points="27.98 109.63 27.99 109.63 27.99 109.62 27.98 109.63"/>
  <polygon points="31.94 92.98 31.95 92.98 31.95 92.98 31.94 92.98"/>
  <polygon points="28.97 121.56 28.98 121.56 28.98 121.56 28.97 121.56"/>
  <path class="cls-2" d="M30.11,97.77c1.13,.23,2.29,.34,3.44,.34,9.72,0,17.62-7.89,17.62-17.61s-7.89-17.61-17.62-17.61-17.62,7.89-17.62,17.61c0,5.31,2.4,10.34,6.53,13.68h0c.58-1.7,1.24-3.37,1.99-5h0c-2.23-2.34-3.48-5.45-3.48-8.68,0-6.94,5.64-12.58,12.58-12.58,2.73,0,5.39,.89,7.57,2.53h0c-12.58,10.04-19.91,25.27-19.91,41.36,0,4.71,.63,9.41,1.87,13.95h0c-1.91,2.39-2.95,5.35-2.95,8.4,0,7.41,6.01,13.42,13.42,13.42s13.42-6.01,13.42-13.42-6.01-13.42-13.42-13.42c-1.56,0-3.11,.27-4.58,.81,.36,1.65,.8,3.28,1.33,4.88h0c1.03-.43,2.14-.65,3.25-.65,4.63,0,8.39,3.76,8.39,8.39,0,3.36-2,6.39-5.09,7.71h0c-6.86-8.52-10.61-19.13-10.61-30.07,0-14.65,6.71-28.5,18.21-37.58,1.1,1.91,1.67,4.07,1.67,6.27,0,6.94-5.64,12.58-12.58,12.58-.54,0-1.07-.03-1.61-.1-.7,1.56-1.31,3.16-1.83,4.79h0Zm.6,44.29h0c-3.32-1.19-5.54-4.35-5.54-7.88,0-.61,.07-1.22,.2-1.81h0c1.44,3.4,3.23,6.65,5.34,9.69Z"/>
</svg>