<?xml version="1.0" encoding="UTF-8"?>
<svg id="Capa_1" data-name="Capa 1" xmlns="http://www.w3.org/2000/svg" viewBox="0 0 65 65.26">
  <defs>
    <style>
      .cls-1 {
        fill: #007bff;
      }

      .cls-2 {
        fill: #e5e5e5;
      }

      .cls-3 {
        fill: #6610ff;
      }

      .cls-4 {
        fill: #35ff68;
      }
    </style>
  </defs>
  <polygon class="cls-4" points="30.09 28.69 32.32 31.03 34.67 31.99 30.09 28.69"/>
  <path class="cls-2" d="M34.67,31.99l-3.2,.51-4.55-.85c-.92-4.17-2.62-8.12-5.01-11.66h0c3.45,4.78,7.78,8.85,12.76,12Z"/>
  <path class="cls-2" d="M31.3,47.98c-3.61,2.77-6.77,6.07-9.39,9.79h0c2.71-4,4.53-8.55,5.33-13.31,1.02-.52,2.03-1.05,3.05-1.57l1.01,5.1Z"/>
  <path class="cls-2" d="M42.85,41.56l-4.53-2.41,1.11-2.67,3.48-.37c3.77,1.43,7.71,2.36,11.73,2.77-4.03,.36-8,1.26-11.79,2.69Z"/>
  <g>
    <path class="cls-1" d="M36.77,31.86c-2.15-4.67-3.49-9.67-3.94-14.79-.4,3.98-1.32,7.88-2.73,11.62l4.58,3.3,2.1-.13Z"/>
    <path class="cls-1" d="M29.79,44.12c-5.68,.51-11.14,2.46-15.87,5.66h0c4.65-3.35,8.64-7.54,11.76-12.36l3.79,3.15"/>
    <path class="cls-1" d="M40.81,38.88c2.98,4.24,6.67,7.93,10.92,10.91h0c-4.25-2.88-9.11-4.75-14.19-5.46l-.85-3.26,3.12-2.55,1,.37Z"/>
  </g>
  <path class="cls-3" d="M32.82,60.69c1.17-13.15,8.09-25.12,18.9-32.72-5.94,2.67-12.38,4.05-18.9,4.05s-12.96-1.38-18.9-4.05h0c11.61,5.63,18.99,17.4,18.99,30.3,0,.81-.03,1.61-.09,2.42"/>
  <path class="cls-3" d="M56.33,29.96L32.5,6.13,8.67,29.96v26.37h0c0,2.39,1.94,4.33,4.33,4.33h10.83s0,0,0,0c1.2,0,2.17,.97,2.17,2.17s-.97,2.17-2.17,2.17H13c-4.78,0-8.67-3.88-8.67-8.67v-22.04l-.63,.63h0c-.41,.41-.96,.63-1.53,.63-1.2,0-2.17-.97-2.17-2.17,0-.57,.23-1.13,.63-1.53L32.5,0s31.87,31.86,31.86,31.87h0c.41,.41,.63,.96,.63,1.53,0,1.2-.97,2.17-2.17,2.17-.57,0-1.13-.23-1.53-.63l-.63-.64v22.04h0c0,4.78-3.88,8.67-8.67,8.67h-10.83s0,0,0,0c-1.2,0-2.17-.97-2.17-2.17s.97-2.17,2.17-2.17h10.83s0,0,0,0c2.39,0,4.33-1.94,4.33-4.33,0,0,0-26.37,0-26.37Z"/>
</svg>